<?xml version="1.0" standalone="no"?>
<!DOCTYPE svg PUBLIC "-//W3C//DTD SVG 20010904//EN"
 "http://www.w3.org/TR/2001/REC-SVG-20010904/DTD/svg10.dtd">
<svg version="1.0" xmlns="http://www.w3.org/2000/svg"
 width="110.000000pt" height="110.000000pt" viewBox="0 0 110.000000 110.000000"
 preserveAspectRatio="xMidYMid meet">
<metadata>
Created by potrace 1.13, written by Peter Selinger 2001-2015
</metadata>
<g transform="translate(0.000000,110.000000) scale(0.100000,-0.100000)"
fill="#000000" stroke="none">
<path d="M493 965 c-148 -32 -310 -151 -369 -271 -27 -55 -29 -67 -29 -179 0
-75 5 -134 14 -158 15 -44 66 -107 87 -107 11 0 14 -16 14 -65 0 -39 6 -78 15
-95 16 -32 61 -60 95 -60 11 0 20 -7 20 -15 0 -9 9 -15 25 -15 22 0 24 3 15
24 -7 18 -5 28 7 38 27 22 12 157 -26 228 -26 52 -28 59 -13 65 16 6 30 -6 51
-44 5 -8 16 -11 25 -8 13 5 15 13 10 29 -5 13 -7 35 -6 51 1 24 -2 27 -29 27
-16 0 -42 -6 -58 -14 -17 -9 -32 -11 -42 -5 -21 13 -55 11 -68 -5 -6 -8 -15
-33 -19 -57 l-8 -44 -22 35 c-32 51 -45 126 -40 221 5 104 36 167 116 240 104
95 216 141 347 142 69 1 91 -3 157 -32 98 -41 167 -104 204 -186 37 -79 45
-215 19 -311 -12 -44 -14 -68 -7 -77 18 -22 54 -168 59 -243 6 -69 7 -74 29
-74 21 0 24 5 24 35 0 49 -27 177 -51 242 -19 50 -19 56 -5 105 25 88 28 148
12 230 -30 152 -107 254 -241 317 -111 53 -192 62 -312 36z m-189 -642 c26
-41 41 -88 51 -170 6 -46 4 -53 -15 -63 -31 -17 -64 -5 -79 27 -12 27 -17 215
-6 234 11 17 25 9 49 -28z"/>
<path d="M695 496 c-32 -20 -49 -24 -82 -19 -39 5 -42 4 -58 -28 -36 -69 4
-237 74 -312 34 -36 41 -39 88 -39 75 1 163 43 163 79 0 18 -24 16 -69 -7 -22
-11 -57 -22 -80 -26 -37 -6 -44 -3 -69 24 -47 50 -93 228 -66 255 14 13 56
-29 104 -104 49 -77 63 -89 75 -69 8 13 -39 102 -76 145 -34 39 -34 39 -2 49
17 5 24 1 35 -20 27 -56 62 -30 40 29 -8 20 -8 35 -2 42 5 7 7 15 3 18 -12 13
-38 7 -78 -17z"/>
</g>
</svg>
